<svg width="24" height="35" viewBox="0 0 24 35" fill="none" xmlns="http://www.w3.org/2000/svg">
<path d="M23.2027 0.479004C23.1592 0.479004 23.1157 0.479004 23.0721 0.479004C22.9851 0.522494 22.898 0.565984 22.8109 0.609474C21.592 1.3488 20.5473 2.2621 19.6766 3.39284C17.8918 5.61083 17.0647 8.17674 16.8035 11.0036C16.6729 12.4823 16.4552 14.0044 16.2811 15.4831C16.194 16.2224 16.107 17.0052 16.0634 17.7445C16.8035 17.6141 17.3694 17.875 17.8918 18.3534C18.5883 18.9623 18.6754 19.9625 18.1094 20.6584C17.8483 20.9628 17.4565 21.2238 17.0647 21.4412C17.0647 21.4412 17.0211 21.4412 17.0211 21.4847C17.2388 22.0501 17.4129 22.7024 17.5 23.3983C17.5435 23.3983 17.5871 23.3548 17.6306 23.3548C19.1978 22.7894 20.1555 21.7456 20.4167 20.0495C20.6343 18.6144 19.8507 17.1357 18.5012 16.3529C18.2836 16.2224 18.1965 16.0919 18.24 15.831C18.4577 14.1784 18.6754 12.5257 18.806 10.8296C18.9366 9.30748 19.3719 7.87231 20.0684 6.43714C20.3731 5.78479 21.2873 4.48009 21.2873 4.48009C21.2873 4.48009 21.2873 19.0927 21.2873 26.3556H13.3644V28.0952H14.6704C14.2786 30.0087 13.3209 31.27 12.5808 32.0093V26.0511C12.7114 25.5728 13.0597 24.9639 14.1045 24.6595C14.148 24.6595 14.1915 24.616 14.2786 24.616C14.2351 24.355 14.1915 24.0941 14.1915 23.9636C14.148 23.5722 14.0609 23.1808 13.9739 22.7894C13.7997 22.8329 13.6256 22.8764 13.5386 22.9199C12.8856 23.1808 11.8408 24.0071 11.6231 24.2246C11.4055 24.0506 10.3607 23.1808 9.70771 22.9199C9.62064 22.8764 9.44651 22.8329 9.27238 22.7894C9.18532 23.1373 9.09826 23.5287 9.05472 23.9636C9.05472 24.0941 9.01119 24.3115 8.96766 24.616C9.01119 24.616 9.05472 24.6595 9.14179 24.6595C10.1866 24.9639 10.5348 25.5728 10.6654 26.0511V32.0528C9.92537 31.3134 8.96766 30.0522 8.57587 28.1822H9.92537V26.4426H1.91542V4.52358C1.91542 4.52358 2.8296 5.82828 3.13433 6.48063C3.78731 7.87231 4.22264 9.30748 4.39676 10.8731C4.52736 12.5257 4.74502 14.1784 4.96268 15.8745C5.00622 16.1354 4.91915 16.2659 4.70149 16.3964C3.35199 17.1792 2.56841 18.6578 2.78607 20.093C3.00373 21.7456 4.00497 22.8329 5.57214 23.3983C5.61567 23.3983 5.6592 23.4417 5.70273 23.4417C5.83333 22.7459 5.96393 22.137 6.18159 21.5282C6.18159 21.5282 6.18159 21.5282 6.13806 21.5282C5.74627 21.3107 5.35448 21.0933 5.09328 20.7454C4.52736 20.0495 4.61443 19.0493 5.31094 18.4404C5.7898 18.0055 6.39925 17.7011 7.1393 17.8315C7.05224 17.0487 7.0087 16.3094 6.92164 15.57C6.74751 14.0914 6.52985 12.5692 6.39925 11.0906C6.18159 8.26372 5.31094 5.69781 3.52612 3.47982C2.65547 2.34908 1.6107 1.43578 0.391791 0.696454C0.304726 0.652964 0.217662 0.609474 0.130597 0.565984C0.0870647 0.565984 0.0435323 0.565984 0 0.565984V28.2256H6.44278C7.35696 32.7921 11.5796 34.9231 11.5796 34.9231C11.5796 34.9231 15.8022 32.9226 16.8035 28.1822H23.2027V0.479004Z" fill="black"/>
</svg>
