<svg width="500" height="500" viewBox="0 0 500 500" fill="none" xmlns="http://www.w3.org/2000/svg">
<rect width="500" height="500" fill="#FFCD4E"/>
<path d="M238.103 418.523C218.276 404.163 203.653 382.741 198.944 357.788H135V95.3074C169.45 111.551 193.987 147.568 196.961 184.763L206.627 258.446L201.918 257.739C191.509 257.739 182.586 266.92 182.586 276.101C182.586 284.576 189.526 291.874 198.448 293.757L210.097 296.346C229.429 261.741 240.334 227.842 240.334 194.414C240.334 164.282 236.121 134.385 235.625 103.782C235.625 90.1284 241.078 77.6517 250 68C258.922 77.8872 264.375 90.1284 264.375 103.782C264.375 134.385 259.666 164.518 259.666 194.414C259.666 227.607 270.571 261.741 289.903 296.346L301.552 293.757C310.474 291.874 317.414 284.576 317.414 276.101C317.414 266.92 308.491 257.739 298.082 257.739L293.373 258.446L303.039 184.763C307.748 147.568 330.55 111.551 365 95.3074V357.788H301.056C296.347 382.506 282.468 404.87 261.897 418.523C257.187 421.819 252.974 425.821 250.248 431C247.026 425.586 242.813 421.819 238.103 418.523ZM165.237 267.156C167.963 257.268 175.647 248.794 185.065 243.615L177.381 182.879C174.655 164.047 166.476 147.097 154.084 133.208V266.92H165.237V267.156ZM197.705 339.426C197.705 330.245 199.192 321.77 201.175 313.296L192.252 311.412C179.116 307.41 168.955 297.759 165.485 285.282H154.58V339.426H197.705ZM240.086 339.426C240.086 328.362 231.164 318.475 219.515 317.298C217.532 324.36 216.045 331.658 216.045 339.426H240.086ZM240.086 357.788H218.772C222.241 372.148 229.677 385.095 240.086 396.395V357.788ZM270.323 301.054C262.144 286.695 254.461 271.628 249.752 256.091C245.043 271.864 237.36 286.695 229.181 301.054C237.36 302.938 244.3 308.117 249.752 314.002C255.205 308.117 262.144 302.938 270.323 301.054ZM283.459 339.426C283.459 331.658 281.972 324.36 279.989 317.298C268.341 318.71 259.418 328.362 259.418 339.426H283.459ZM280.733 357.788H259.418V396.395C269.828 385.095 277.263 372.148 280.733 357.788ZM345.42 339.426V285.282H334.515C331.045 297.759 320.884 307.41 307.748 311.412L298.825 313.296C300.808 321.77 302.295 330.245 302.295 339.426H345.42ZM345.42 267.156V133.444C333.028 147.097 324.106 164.047 322.123 183.115L314.44 243.85C324.106 249.029 331.541 257.504 334.267 267.391H345.42V267.156Z" fill="black"/>
</svg>
